<mxfile host="app.diagrams.net" modified="2023-05-28T16:18:28.848Z" agent="Mozilla/5.0 (Windows NT 10.0; Win64; x64; rv:109.0) Gecko/20100101 Firefox/113.0" etag="8bpuc0sX2el_dG9YuYUI" version="21.3.2" type="device">
  <diagram id="C5RBs43oDa-KdzZeNtuy" name="Page-1">
    <mxGraphModel dx="1434" dy="739" grid="1" gridSize="10" guides="1" tooltips="1" connect="1" arrows="1" fold="1" page="1" pageScale="1" pageWidth="827" pageHeight="1169" math="0" shadow="0">
      <root>
        <mxCell id="WIyWlLk6GJQsqaUBKTNV-0" />
        <mxCell id="WIyWlLk6GJQsqaUBKTNV-1" parent="WIyWlLk6GJQsqaUBKTNV-0" />
        <mxCell id="gHuZVF3myoKP0aIPClMC-43" value="" style="rounded=0;whiteSpace=wrap;html=1;fillColor=#bac8d3;strokeColor=#23445d;" parent="WIyWlLk6GJQsqaUBKTNV-1" vertex="1">
          <mxGeometry x="41" y="60" width="729" height="290" as="geometry" />
        </mxCell>
        <mxCell id="gHuZVF3myoKP0aIPClMC-57" value="" style="rounded=0;whiteSpace=wrap;html=1;fillColor=#ffe6cc;strokeColor=#d79b00;" parent="WIyWlLk6GJQsqaUBKTNV-1" vertex="1">
          <mxGeometry x="376.5" y="230" width="316" height="110" as="geometry" />
        </mxCell>
        <mxCell id="gHuZVF3myoKP0aIPClMC-47" value="" style="rounded=0;whiteSpace=wrap;html=1;fillColor=#ffe6cc;strokeColor=#d79b00;" parent="WIyWlLk6GJQsqaUBKTNV-1" vertex="1">
          <mxGeometry x="55" y="230" width="316" height="110" as="geometry" />
        </mxCell>
        <mxCell id="gHuZVF3myoKP0aIPClMC-44" value="" style="rounded=0;whiteSpace=wrap;html=1;fillColor=#fad7ac;strokeColor=#b46504;" parent="WIyWlLk6GJQsqaUBKTNV-1" vertex="1">
          <mxGeometry x="169" y="85.5" width="490" height="133" as="geometry" />
        </mxCell>
        <mxCell id="Tn3Q-JOgf97j42v1SPCj-45" value="" style="rounded=0;whiteSpace=wrap;html=1;" parent="WIyWlLk6GJQsqaUBKTNV-1" vertex="1">
          <mxGeometry x="692.5" y="65" width="70" height="60" as="geometry" />
        </mxCell>
        <mxCell id="gHuZVF3myoKP0aIPClMC-3" style="rounded=0;orthogonalLoop=1;jettySize=auto;html=1;entryX=-0.029;entryY=0.278;entryDx=0;entryDy=0;entryPerimeter=0;exitX=1;exitY=0.5;exitDx=0;exitDy=0;" parent="WIyWlLk6GJQsqaUBKTNV-1" source="Tn3Q-JOgf97j42v1SPCj-0" target="Tn3Q-JOgf97j42v1SPCj-10" edge="1">
          <mxGeometry relative="1" as="geometry">
            <mxPoint x="295.24" y="153" as="targetPoint" />
          </mxGeometry>
        </mxCell>
        <mxCell id="Tn3Q-JOgf97j42v1SPCj-0" value="Sensor" style="ellipse;whiteSpace=wrap;html=1;fillColor=#fff2cc;strokeColor=#d6b656;" parent="WIyWlLk6GJQsqaUBKTNV-1" vertex="1">
          <mxGeometry x="184.25" y="102" width="70" height="30" as="geometry" />
        </mxCell>
        <mxCell id="gHuZVF3myoKP0aIPClMC-12" style="edgeStyle=orthogonalEdgeStyle;rounded=0;orthogonalLoop=1;jettySize=auto;html=1;entryX=0;entryY=0.444;entryDx=0;entryDy=0;entryPerimeter=0;" parent="WIyWlLk6GJQsqaUBKTNV-1" source="Tn3Q-JOgf97j42v1SPCj-10" target="Tn3Q-JOgf97j42v1SPCj-15" edge="1">
          <mxGeometry relative="1" as="geometry" />
        </mxCell>
        <mxCell id="Tn3Q-JOgf97j42v1SPCj-10" value="&lt;b&gt;Manager&lt;/b&gt;" style="rounded=1;whiteSpace=wrap;html=1;fillColor=#1ba1e2;strokeColor=#006EAF;fontColor=#ffffff;" parent="WIyWlLk6GJQsqaUBKTNV-1" vertex="1">
          <mxGeometry x="308.5" y="137" width="70" height="30" as="geometry" />
        </mxCell>
        <mxCell id="gHuZVF3myoKP0aIPClMC-28" style="edgeStyle=orthogonalEdgeStyle;rounded=0;orthogonalLoop=1;jettySize=auto;html=1;startArrow=classic;startFill=1;" parent="WIyWlLk6GJQsqaUBKTNV-1" source="Tn3Q-JOgf97j42v1SPCj-15" target="Tn3Q-JOgf97j42v1SPCj-17" edge="1">
          <mxGeometry relative="1" as="geometry" />
        </mxCell>
        <mxCell id="Tn3Q-JOgf97j42v1SPCj-15" value="Database" style="shape=datastore;whiteSpace=wrap;html=1;fillColor=#dae8fc;strokeColor=#6c8ebf;" parent="WIyWlLk6GJQsqaUBKTNV-1" vertex="1">
          <mxGeometry x="449" y="132" width="60" height="45" as="geometry" />
        </mxCell>
        <mxCell id="Tn3Q-JOgf97j42v1SPCj-17" value="&lt;font style=&quot;font-size: 9px;&quot;&gt;grafische Benutzeroberfläche&lt;/font&gt;" style="rounded=1;whiteSpace=wrap;html=1;fillColor=#dae8fc;strokeColor=#6c8ebf;" parent="WIyWlLk6GJQsqaUBKTNV-1" vertex="1">
          <mxGeometry x="557.5" y="139.5" width="84" height="30" as="geometry" />
        </mxCell>
        <mxCell id="Tn3Q-JOgf97j42v1SPCj-41" value="&lt;font style=&quot;font-size: 8px;&quot;&gt;&lt;b&gt;&lt;font style=&quot;font-size: 8px;&quot;&gt;External Tools&lt;br&gt;&lt;/font&gt;&lt;/b&gt;&lt;/font&gt;" style="rounded=1;whiteSpace=wrap;html=1;fillColor=#fff2cc;strokeColor=#d6b656;" parent="WIyWlLk6GJQsqaUBKTNV-1" vertex="1">
          <mxGeometry x="697.5" y="72" width="60" height="20" as="geometry" />
        </mxCell>
        <mxCell id="Tn3Q-JOgf97j42v1SPCj-43" value="&lt;font style=&quot;font-size: 8px;&quot;&gt;&lt;b&gt;Preludes&lt;/b&gt;&lt;/font&gt;" style="rounded=1;whiteSpace=wrap;html=1;fillColor=#dae8fc;strokeColor=#6c8ebf;" parent="WIyWlLk6GJQsqaUBKTNV-1" vertex="1">
          <mxGeometry x="697.5" y="99" width="60" height="20" as="geometry" />
        </mxCell>
        <mxCell id="gHuZVF3myoKP0aIPClMC-5" style="edgeStyle=orthogonalEdgeStyle;rounded=0;orthogonalLoop=1;jettySize=auto;html=1;exitX=0.5;exitY=1;exitDx=0;exitDy=0;" parent="WIyWlLk6GJQsqaUBKTNV-1" source="Tn3Q-JOgf97j42v1SPCj-41" target="Tn3Q-JOgf97j42v1SPCj-41" edge="1">
          <mxGeometry relative="1" as="geometry" />
        </mxCell>
        <mxCell id="gHuZVF3myoKP0aIPClMC-7" value="Organisation" style="text;html=1;strokeColor=none;fillColor=none;align=center;verticalAlign=middle;whiteSpace=wrap;rounded=0;" parent="WIyWlLk6GJQsqaUBKTNV-1" vertex="1">
          <mxGeometry x="50" y="55.5" width="60" height="30" as="geometry" />
        </mxCell>
        <mxCell id="gHuZVF3myoKP0aIPClMC-14" style="edgeStyle=orthogonalEdgeStyle;rounded=0;orthogonalLoop=1;jettySize=auto;html=1;entryX=0;entryY=0.5;entryDx=0;entryDy=0;" parent="WIyWlLk6GJQsqaUBKTNV-1" source="gHuZVF3myoKP0aIPClMC-8" target="Tn3Q-JOgf97j42v1SPCj-10" edge="1">
          <mxGeometry relative="1" as="geometry" />
        </mxCell>
        <mxCell id="gHuZVF3myoKP0aIPClMC-8" value="Sensor" style="ellipse;whiteSpace=wrap;html=1;fillColor=#fff2cc;strokeColor=#d6b656;" parent="WIyWlLk6GJQsqaUBKTNV-1" vertex="1">
          <mxGeometry x="184.25" y="137" width="70" height="30" as="geometry" />
        </mxCell>
        <mxCell id="gHuZVF3myoKP0aIPClMC-15" style="rounded=0;orthogonalLoop=1;jettySize=auto;html=1;entryX=0;entryY=0.667;entryDx=0;entryDy=0;entryPerimeter=0;" parent="WIyWlLk6GJQsqaUBKTNV-1" source="gHuZVF3myoKP0aIPClMC-9" target="Tn3Q-JOgf97j42v1SPCj-10" edge="1">
          <mxGeometry relative="1" as="geometry" />
        </mxCell>
        <mxCell id="gHuZVF3myoKP0aIPClMC-9" value="Sensor" style="ellipse;whiteSpace=wrap;html=1;fillColor=#fff2cc;strokeColor=#d6b656;" parent="WIyWlLk6GJQsqaUBKTNV-1" vertex="1">
          <mxGeometry x="184.25" y="177" width="70" height="30" as="geometry" />
        </mxCell>
        <mxCell id="gHuZVF3myoKP0aIPClMC-30" style="rounded=0;orthogonalLoop=1;jettySize=auto;html=1;entryX=0.597;entryY=1.005;entryDx=0;entryDy=0;entryPerimeter=0;" parent="WIyWlLk6GJQsqaUBKTNV-1" source="gHuZVF3myoKP0aIPClMC-17" target="gHuZVF3myoKP0aIPClMC-19" edge="1">
          <mxGeometry relative="1" as="geometry" />
        </mxCell>
        <mxCell id="gHuZVF3myoKP0aIPClMC-17" value="Sensor" style="ellipse;whiteSpace=wrap;html=1;fillColor=#fff2cc;strokeColor=#d6b656;" parent="WIyWlLk6GJQsqaUBKTNV-1" vertex="1">
          <mxGeometry x="295.25" y="300" width="70" height="30" as="geometry" />
        </mxCell>
        <mxCell id="gHuZVF3myoKP0aIPClMC-69" value="" style="edgeStyle=orthogonalEdgeStyle;rounded=0;orthogonalLoop=1;jettySize=auto;html=1;strokeWidth=3;fillColor=#1ba1e2;strokeColor=#006EAF;" parent="WIyWlLk6GJQsqaUBKTNV-1" source="gHuZVF3myoKP0aIPClMC-19" target="Tn3Q-JOgf97j42v1SPCj-10" edge="1">
          <mxGeometry relative="1" as="geometry">
            <Array as="points">
              <mxPoint x="305" y="210" />
              <mxPoint x="344" y="210" />
            </Array>
          </mxGeometry>
        </mxCell>
        <mxCell id="gHuZVF3myoKP0aIPClMC-19" value="&lt;b&gt;Manager&lt;/b&gt;" style="rounded=1;whiteSpace=wrap;html=1;fillColor=#1ba1e2;strokeColor=#006EAF;fontColor=#ffffff;" parent="WIyWlLk6GJQsqaUBKTNV-1" vertex="1">
          <mxGeometry x="270" y="247.5" width="70" height="30" as="geometry" />
        </mxCell>
        <mxCell id="gHuZVF3myoKP0aIPClMC-63" style="edgeStyle=orthogonalEdgeStyle;rounded=0;orthogonalLoop=1;jettySize=auto;html=1;startArrow=classic;startFill=1;" parent="WIyWlLk6GJQsqaUBKTNV-1" source="gHuZVF3myoKP0aIPClMC-21" target="gHuZVF3myoKP0aIPClMC-19" edge="1">
          <mxGeometry relative="1" as="geometry" />
        </mxCell>
        <mxCell id="gHuZVF3myoKP0aIPClMC-21" value="Database" style="shape=datastore;whiteSpace=wrap;html=1;fillColor=#dae8fc;strokeColor=#6c8ebf;" parent="WIyWlLk6GJQsqaUBKTNV-1" vertex="1">
          <mxGeometry x="175.25" y="240" width="60" height="45" as="geometry" />
        </mxCell>
        <mxCell id="gHuZVF3myoKP0aIPClMC-64" style="edgeStyle=orthogonalEdgeStyle;rounded=0;orthogonalLoop=1;jettySize=auto;html=1;entryX=0;entryY=0.5;entryDx=0;entryDy=0;startArrow=classic;startFill=1;" parent="WIyWlLk6GJQsqaUBKTNV-1" source="gHuZVF3myoKP0aIPClMC-22" target="gHuZVF3myoKP0aIPClMC-21" edge="1">
          <mxGeometry relative="1" as="geometry" />
        </mxCell>
        <mxCell id="gHuZVF3myoKP0aIPClMC-22" value="&lt;font style=&quot;font-size: 9px;&quot;&gt;grafische Benutzeroberfläche&lt;/font&gt;" style="rounded=1;whiteSpace=wrap;html=1;fillColor=#dae8fc;strokeColor=#6c8ebf;" parent="WIyWlLk6GJQsqaUBKTNV-1" vertex="1">
          <mxGeometry x="66" y="247.5" width="84" height="30" as="geometry" />
        </mxCell>
        <mxCell id="gHuZVF3myoKP0aIPClMC-29" style="rounded=0;orthogonalLoop=1;jettySize=auto;html=1;entryX=0.338;entryY=1.005;entryDx=0;entryDy=0;entryPerimeter=0;" parent="WIyWlLk6GJQsqaUBKTNV-1" source="gHuZVF3myoKP0aIPClMC-26" target="gHuZVF3myoKP0aIPClMC-19" edge="1">
          <mxGeometry relative="1" as="geometry" />
        </mxCell>
        <mxCell id="gHuZVF3myoKP0aIPClMC-26" value="Sensor" style="ellipse;whiteSpace=wrap;html=1;fillColor=#fff2cc;strokeColor=#d6b656;" parent="WIyWlLk6GJQsqaUBKTNV-1" vertex="1">
          <mxGeometry x="225.25" y="300" width="70" height="30" as="geometry" />
        </mxCell>
        <mxCell id="gHuZVF3myoKP0aIPClMC-46" value="Network Operation Center (NOC) - Central Branch" style="text;html=1;strokeColor=none;fillColor=none;align=center;verticalAlign=middle;whiteSpace=wrap;rounded=0;" parent="WIyWlLk6GJQsqaUBKTNV-1" vertex="1">
          <mxGeometry x="264" y="80" width="300" height="30" as="geometry" />
        </mxCell>
        <mxCell id="gHuZVF3myoKP0aIPClMC-48" style="rounded=0;orthogonalLoop=1;jettySize=auto;html=1;entryX=0.597;entryY=1.005;entryDx=0;entryDy=0;entryPerimeter=0;" parent="WIyWlLk6GJQsqaUBKTNV-1" source="gHuZVF3myoKP0aIPClMC-49" target="gHuZVF3myoKP0aIPClMC-51" edge="1">
          <mxGeometry relative="1" as="geometry" />
        </mxCell>
        <mxCell id="gHuZVF3myoKP0aIPClMC-49" value="Sensor" style="ellipse;whiteSpace=wrap;html=1;fillColor=#fff2cc;strokeColor=#d6b656;" parent="WIyWlLk6GJQsqaUBKTNV-1" vertex="1">
          <mxGeometry x="456.5" y="300" width="70" height="30" as="geometry" />
        </mxCell>
        <mxCell id="gHuZVF3myoKP0aIPClMC-50" style="edgeStyle=orthogonalEdgeStyle;rounded=0;orthogonalLoop=1;jettySize=auto;html=1;entryX=0;entryY=0.444;entryDx=0;entryDy=0;entryPerimeter=0;startArrow=classic;startFill=1;" parent="WIyWlLk6GJQsqaUBKTNV-1" source="gHuZVF3myoKP0aIPClMC-51" target="gHuZVF3myoKP0aIPClMC-53" edge="1">
          <mxGeometry relative="1" as="geometry" />
        </mxCell>
        <mxCell id="gHuZVF3myoKP0aIPClMC-71" style="edgeStyle=orthogonalEdgeStyle;rounded=0;orthogonalLoop=1;jettySize=auto;html=1;entryX=0.5;entryY=1;entryDx=0;entryDy=0;strokeWidth=3;fillColor=#1ba1e2;strokeColor=#006EAF;" parent="WIyWlLk6GJQsqaUBKTNV-1" source="gHuZVF3myoKP0aIPClMC-51" target="Tn3Q-JOgf97j42v1SPCj-10" edge="1">
          <mxGeometry relative="1" as="geometry">
            <Array as="points">
              <mxPoint x="452" y="210" />
              <mxPoint x="344" y="210" />
              <mxPoint x="344" y="167" />
            </Array>
          </mxGeometry>
        </mxCell>
        <mxCell id="gHuZVF3myoKP0aIPClMC-51" value="&lt;b&gt;Manager&lt;/b&gt;" style="rounded=1;whiteSpace=wrap;html=1;fillColor=#1ba1e2;strokeColor=#006EAF;fontColor=#ffffff;" parent="WIyWlLk6GJQsqaUBKTNV-1" vertex="1">
          <mxGeometry x="416.5" y="245" width="70" height="30" as="geometry" />
        </mxCell>
        <mxCell id="gHuZVF3myoKP0aIPClMC-52" style="edgeStyle=orthogonalEdgeStyle;rounded=0;orthogonalLoop=1;jettySize=auto;html=1;startArrow=classic;startFill=1;" parent="WIyWlLk6GJQsqaUBKTNV-1" source="gHuZVF3myoKP0aIPClMC-53" edge="1">
          <mxGeometry relative="1" as="geometry">
            <mxPoint x="596.5" y="262.5" as="targetPoint" />
          </mxGeometry>
        </mxCell>
        <mxCell id="gHuZVF3myoKP0aIPClMC-53" value="Database" style="shape=datastore;whiteSpace=wrap;html=1;fillColor=#dae8fc;strokeColor=#6c8ebf;" parent="WIyWlLk6GJQsqaUBKTNV-1" vertex="1">
          <mxGeometry x="516.5" y="240" width="60" height="45" as="geometry" />
        </mxCell>
        <mxCell id="gHuZVF3myoKP0aIPClMC-54" value="&lt;font style=&quot;font-size: 9px;&quot;&gt;grafische Benutzeroberfläche&lt;/font&gt;" style="rounded=1;whiteSpace=wrap;html=1;fillColor=#dae8fc;strokeColor=#6c8ebf;" parent="WIyWlLk6GJQsqaUBKTNV-1" vertex="1">
          <mxGeometry x="598.5" y="245" width="84" height="30" as="geometry" />
        </mxCell>
        <mxCell id="gHuZVF3myoKP0aIPClMC-55" style="rounded=0;orthogonalLoop=1;jettySize=auto;html=1;entryX=0.338;entryY=1.005;entryDx=0;entryDy=0;entryPerimeter=0;" parent="WIyWlLk6GJQsqaUBKTNV-1" source="gHuZVF3myoKP0aIPClMC-56" target="gHuZVF3myoKP0aIPClMC-51" edge="1">
          <mxGeometry relative="1" as="geometry" />
        </mxCell>
        <mxCell id="gHuZVF3myoKP0aIPClMC-56" value="Sensor" style="ellipse;whiteSpace=wrap;html=1;fillColor=#fff2cc;strokeColor=#d6b656;" parent="WIyWlLk6GJQsqaUBKTNV-1" vertex="1">
          <mxGeometry x="376.5" y="300" width="70" height="30" as="geometry" />
        </mxCell>
        <mxCell id="gHuZVF3myoKP0aIPClMC-58" value="Branch A" style="text;html=1;strokeColor=none;fillColor=none;align=center;verticalAlign=middle;whiteSpace=wrap;rounded=0;" parent="WIyWlLk6GJQsqaUBKTNV-1" vertex="1">
          <mxGeometry x="55" y="310" width="60" height="30" as="geometry" />
        </mxCell>
        <mxCell id="gHuZVF3myoKP0aIPClMC-59" value="Branch B" style="text;html=1;strokeColor=none;fillColor=none;align=center;verticalAlign=middle;whiteSpace=wrap;rounded=0;" parent="WIyWlLk6GJQsqaUBKTNV-1" vertex="1">
          <mxGeometry x="632.5" y="310" width="60" height="30" as="geometry" />
        </mxCell>
        <mxCell id="gHuZVF3myoKP0aIPClMC-72" value="" style="rounded=0;whiteSpace=wrap;html=1;fillColor=#ffe6cc;strokeColor=#d79b00;" parent="WIyWlLk6GJQsqaUBKTNV-1" vertex="1">
          <mxGeometry x="700" y="230" width="60" height="110" as="geometry" />
        </mxCell>
        <mxCell id="gHuZVF3myoKP0aIPClMC-73" value="Branch B" style="text;html=1;strokeColor=none;fillColor=none;align=center;verticalAlign=middle;whiteSpace=wrap;rounded=0;" parent="WIyWlLk6GJQsqaUBKTNV-1" vertex="1">
          <mxGeometry x="632.5" y="310" width="60" height="30" as="geometry" />
        </mxCell>
        <mxCell id="gHuZVF3myoKP0aIPClMC-74" value="Branch C" style="text;html=1;strokeColor=none;fillColor=none;align=center;verticalAlign=middle;whiteSpace=wrap;rounded=0;" parent="WIyWlLk6GJQsqaUBKTNV-1" vertex="1">
          <mxGeometry x="700" y="310" width="60" height="30" as="geometry" />
        </mxCell>
        <mxCell id="gHuZVF3myoKP0aIPClMC-76" value="&lt;b style=&quot;font-size: 10px;&quot;&gt;Manager&lt;/b&gt;" style="rounded=1;whiteSpace=wrap;html=1;fillColor=#1ba1e2;strokeColor=#006EAF;fontColor=#ffffff;fontSize=10;" parent="WIyWlLk6GJQsqaUBKTNV-1" vertex="1">
          <mxGeometry x="705" y="245" width="50" height="25" as="geometry" />
        </mxCell>
        <mxCell id="gHuZVF3myoKP0aIPClMC-75" style="edgeStyle=orthogonalEdgeStyle;rounded=0;orthogonalLoop=1;jettySize=auto;html=1;strokeWidth=3;exitX=0.5;exitY=0;exitDx=0;exitDy=0;fillColor=#1ba1e2;strokeColor=#006EAF;" parent="WIyWlLk6GJQsqaUBKTNV-1" source="gHuZVF3myoKP0aIPClMC-76" edge="1">
          <mxGeometry relative="1" as="geometry">
            <mxPoint x="344" y="167" as="targetPoint" />
            <Array as="points">
              <mxPoint x="730" y="210" />
              <mxPoint x="344" y="210" />
            </Array>
          </mxGeometry>
        </mxCell>
      </root>
    </mxGraphModel>
  </diagram>
</mxfile>
